<svg width="11" height="13" viewBox="0 0 11 13" fill="none" xmlns="http://www.w3.org/2000/svg">
  <g clip-path="url(#clip0_2862_884)">
  <g clip-path="url(#clip1_2862_884)">
  <g clip-path="url(#clip2_2862_884)">
  <path d="M5.43467 7.13471C7.15468 7.13471 8.54902 5.74037 8.54902 4.02036C8.54902 2.30035 7.15468 0.906006 5.43467 0.906006C3.71466 0.906006 2.32031 2.30035 2.32031 4.02036C2.32031 5.74037 3.71466 7.13471 5.43467 7.13471Z" fill="#FFC800"/>
  <path d="M6.44703 10.0016C8.81783 10.1379 10.605 10.7473 10.605 11.4781C10.605 12.3087 8.2917 12.9829 5.43653 12.9829C2.58222 12.9829 0.268066 12.3087 0.268066 11.4781C0.268066 10.7557 2.01405 10.1528 4.34309 10.0063L6.44703 10.0016Z" fill="#FFC800"/>
  <path d="M5.38917 0.0200195C7.62596 0.0200195 9.43938 1.83345 9.43938 4.07082C9.43938 5.33359 7.73282 7.97125 6.44552 9.99869C6.24626 10.3126 6.05702 10.6119 5.88571 10.8891C5.66282 11.2499 5.11538 11.25 4.89343 10.8887C4.72518 10.6148 4.53859 10.317 4.34158 10.0034C3.061 7.9657 1.33838 5.2568 1.33838 4.07082C1.33838 1.83345 3.15181 0.0200195 5.38917 0.0200195ZM7.1988 3.91812C7.1988 2.92075 6.38596 2.10761 5.38917 2.10761C4.3918 2.10761 3.57896 2.92075 3.57896 3.91812C3.57896 4.9149 4.3918 5.72774 5.38917 5.72774C6.38596 5.72774 7.1988 4.9149 7.1988 3.91812Z" fill="#0E47AB"/>
  </g>
  </g>
  </g>
  <defs>
  <clipPath id="clip0_2862_884">
  <rect width="10.8" height="12.95" fill="white" transform="translate(0 0.0250244)"/>
  </clipPath>
  <clipPath id="clip1_2862_884">
  <rect width="10.8" height="12.95" fill="white" transform="translate(0 0.0250244)"/>
  </clipPath>
  <clipPath id="clip2_2862_884">
  <rect width="10.8" height="12.96" fill="white" transform="translate(0 0.0200195)"/>
  </clipPath>
  </defs>
  </svg>
  