<svg
  width="26"
  height="26"
  viewBox="0 0 26 26"
  fill="none"
  xmlns="http://www.w3.org/2000/svg"
>
  <rect
    x="0.594727"
    y="0.112305"
    width="25.19"
    height="25.19"
    rx="12.595"
    fill="#0E47AB"
  />
  <g clip-path="url(#clip0_2021_2958)">
    <g clip-path="url(#clip1_2021_2958)">
      <path
        d="M18.2855 11.5784C18.1882 11.5848 18.0906 11.5848 17.9933 11.5784C17.4659 11.5789 16.9469 11.448 16.483 11.1975C16.0191 10.947 15.6251 10.5848 15.3367 10.1437V15.032C15.3367 15.7459 15.1248 16.4438 14.728 17.0373C14.3312 17.6309 13.7671 18.0936 13.1072 18.3668C12.4473 18.6399 11.7212 18.7114 11.0206 18.5721C10.3201 18.4329 9.67661 18.0891 9.17154 17.5843C8.66648 17.0795 8.32251 16.4363 8.18316 15.7362C8.04382 15.036 8.11534 14.3103 8.38868 13.6507C8.66202 12.9912 9.1249 12.4275 9.7188 12.0309C10.3127 11.6343 11.0109 11.4226 11.7252 11.4226H11.9461V13.2013C11.8726 13.1946 11.7987 13.1946 11.7252 13.2013C11.236 13.2013 10.7668 13.3956 10.4208 13.7413C10.0749 14.0871 9.88053 14.556 9.88053 15.045C9.88053 15.534 10.0749 16.0029 10.4208 16.3487C10.7668 16.6944 11.236 16.8887 11.7252 16.8887C12.2199 16.8957 12.6977 16.7087 13.056 16.3677C13.4142 16.0266 13.6244 15.5587 13.6413 15.0645V6.77441H15.3431C15.4217 7.51358 15.7573 8.20175 16.2914 8.71898C16.8255 9.23622 17.5243 9.54973 18.266 9.60485V11.5524"
        fill="white"
      />
    </g>
  </g>
  <defs>
    <clipPath id="clip0_2021_2958">
      <rect
        width="14.39"
        height="13.55"
        fill="white"
        transform="translate(5.99463 5.93262)"
      />
    </clipPath>
    <clipPath id="clip1_2021_2958">
      <rect
        width="14.41"
        height="13.55"
        fill="white"
        transform="translate(5.99463 5.93262)"
      />
    </clipPath>
  </defs>
</svg>